<?xml version="1.0" encoding="utf-8"?>
<!-- Generator: Adobe Illustrator 18.1.0, SVG Export Plug-In . SVG Version: 6.00 Build 0)  -->
<svg version="1.1" id="Layer_1" xmlns="http://www.w3.org/2000/svg" xmlns:xlink="http://www.w3.org/1999/xlink" x="0px" y="0px"
	 viewBox="119.5 157.5 115 33.1" enable-background="new 119.5 157.5 115 33.1" xml:space="preserve">
<g id="Layer_1_1_">
	<path fill="#9D9D9D" d="M136,160.5c-7.4,0-13.5,6-13.5,13.5s6,13.5,13.5,13.5c7.4,0,13.5-6,13.5-13.5
		C149.6,166.6,143.5,160.5,136,160.5z M137.3,161.1c0.1,0,0.2,0,0.3-0.1c0.1,0,0.1,0,0.2,0h0.1c2.2,0.3,4.2,1.2,5.9,2.5
		c-0.8,0-4.9,1.2-4.7,6.5c0.1,0.9-0.6,1.6-1.2,2.1c-0.1-0.1-0.2-0.2-0.4-0.3c0.6-1.3,0.8-3-1-4.5
		C133.8,165.1,135.4,161.6,137.3,161.1z M137.4,173.9c0,0.7-0.6,1.4-1.4,1.4h-0.1c-0.3-0.1-0.6-0.2-0.9-0.4c-0.6-0.6-0.6-1.4,0-2
		c0.3-0.3,0.7-0.4,1-0.4C136.8,172.6,137.4,173.2,137.4,173.9z M128.3,163.5c1.8-1.4,3.8-2.2,5.8-2.5c-0.6,0.4-2.7,4.2,1.2,7.9
		c0.7,0.6,0.8,1.5,0.6,2.3c-0.1,0-0.2,0-0.3,0c-0.5-1.4-1.6-2.7-3.9-2.5C128,169.3,126.8,165,128.3,163.5z M125.7,166.1
		c-0.2,0.4,0.9,5,6.5,4.8c0.9-0.1,1.6,0.5,2,1.2c-0.1,0.1-0.2,0.2-0.3,0.3c-1.4-0.6-3.1-0.8-4.6,1c-2.2,2.7-5.8,1-6.2-0.9
		C123.4,170.2,124.3,168,125.7,166.1z M125.7,181.7c-1.4-1.7-2.2-3.8-2.5-5.8c0.7,0.6,4.4,2.5,7.8-1.4c0.6-0.7,1.5-0.8,2.3-0.6
		c0,0.1,0,0.3,0.1,0.4c-1.4,0.5-2.6,1.6-2.4,3.9C131.6,182,127.2,183.3,125.7,181.7z M134.3,186.8c-2.2-0.3-4.2-1.1-6-2.5
		c0.4,0.2,5-0.9,4.8-6.5c-0.1-0.9,0.5-1.6,1.2-2.1c0.1,0.1,0.2,0.1,0.2,0.2c-0.6,1.4-0.8,3.1,1,4.6
		C138.4,182.8,136.4,186.7,134.3,186.8z M144.2,184c-1.8,1.4-3.9,2.4-6.3,2.8c0.4-0.2,2.9-4.2-1.2-7.9c-0.7-0.6-0.8-1.5-0.6-2.3
		c0.1,0,0.3,0,0.4-0.1c0.5,1.4,1.6,2.8,3.9,2.5C143.9,178.6,145.3,182.4,144.2,184z M146.5,181.5c-0.1-0.9-1.4-4.8-6.5-4.6
		c-1,0.1-1.7-0.6-2.1-1.2c0.1-0.1,0.1-0.2,0.2-0.2c1.3,0.6,3,0.7,4.5-1c2.3-2.9,6.2-0.8,6.3,1.2
		C148.6,177.8,147.8,179.8,146.5,181.5z M146.2,165.9c1.4,1.7,2.3,3.9,2.6,6.1c-0.3-0.5-4.2-2.8-7.9,1.2c-0.6,0.7-1.5,0.7-2.3,0.6
		c0-0.1,0-0.2-0.1-0.4c1.4-0.5,2.8-1.6,2.5-3.9c-0.4-3.4,3.3-4.8,5-3.8C146.1,165.8,146.2,165.9,146.2,165.9z"/>
	<g>
		<path fill="#9D9D9D" d="M136,190.5c-9.1,0-16.5-7.4-16.5-16.5c0-9.1,7.4-16.5,16.5-16.5s16.5,7.4,16.5,16.5
			C152.6,183.2,145.2,190.5,136,190.5z M136,159.6c-7.9,0-14.5,6.5-14.5,14.4c0,7.9,6.5,14.5,14.5,14.5c7.9,0,14.5-6.5,14.5-14.5
			C150.5,166.1,144,159.6,136,159.6z"/>
	</g>
	<path fill="#9D9D9D" d="M152,163.8c0,0-1.5-5-6.4-6.3C145.6,157.5,149.9,159.9,152,163.8z"/>
	<path fill="#9D9D9D" d="M119.9,184c0,0,1.5,5,6.4,6.3C126.3,190.3,122,187.9,119.9,184z"/>
	<g>
		<path fill="#9D9D9D" d="M158.6,165h6.4v2h-4v5.7h3.6v2h-3.6v8.1h-2.4V165z"/>
		<path fill="#9D9D9D" d="M167,165h2.4v15.8h3.9v2H167V165z"/>
		<path fill="#9D9D9D" d="M172.8,165h2.5l1.2,3.9c0.1,0.1,0.1,0.2,0.1,0.4c0.1,0.1,0.1,0.3,0.1,0.4c0.4,1.4,0.7,2.6,0.9,3.5
			c0.1-1,0.2-1.6,0.4-2l0.4-1.6l0.1-0.6l1-4.1h2.5l-3.1,10.1v7.7h-2.4v-7.6L172.8,165z"/>
		<path fill="#9D9D9D" d="M183.6,165h2.3l1.2,8.3l0.2,1.2c0.1,0.7,0.2,1.3,0.2,1.8l0.1,1.5c0,0.1,0,0.1,0,0.2c0,0.1,0,0.2,0.1,0.4
			l0.1-0.6c0.1-1,0.2-1.9,0.3-2.8c0.1-0.9,0.2-1.6,0.4-2.3l1.3-7.7h1.8l1.2,7.5c0.2,1.1,0.3,2.2,0.4,3.1c0.1,0.9,0.2,1.8,0.3,2.7
			c0.1-0.9,0.2-1.8,0.2-2.6c0.1-0.9,0.2-1.7,0.3-2.5l0.2-1.2l1-6.9h2.3l-3.1,17.8h-1.8l-1.2-7.7c0,0,0-0.2-0.1-0.4
			c0-0.2-0.1-0.6-0.1-1L191,172c0-0.1-0.1-0.4-0.1-0.6c-0.1-0.3-0.1-0.6-0.1-1l-0.1-0.7c0,0.2-0.1,0.3-0.1,0.5c0,0.1,0,0.2-0.1,0.3
			c-0.1,0.5-0.1,0.9-0.1,1.2c0,0.3-0.1,0.4-0.1,0.5l-0.2,1.7c-0.1,0.4-0.1,0.7-0.1,0.9s-0.1,0.4-0.1,0.4l-1.3,7.7h-1.9L183.6,165z"
			/>
		<path fill="#9D9D9D" d="M199.7,165h2.4v6.9h3.5V165h2.4v17.8h-2.4v-8.9h-3.5v8.9h-2.4L199.7,165L199.7,165z"/>
		<path fill="#9D9D9D" d="M210.6,165h6.4v2h-4v5.7h3.5v2H213v6.1h4v2h-6.4V165z"/>
		<path fill="#9D9D9D" d="M219.4,165h6.4v2h-4v5.7h3.5v2h-3.5v6.1h4v2h-6.4V165z"/>
		<path fill="#9D9D9D" d="M228.2,165h2.4v15.8h3.9v2h-6.3V165L228.2,165z"/>
	</g>
</g>
<g id="Layer_2">
</g>
</svg>
